<svg aria-hidden="true" style="position: absolute; width: 0; height: 0; overflow: hidden;" version="1.1" xmlns="http://www.w3.org/2000/svg" xmlns:xlink="http://www.w3.org/1999/xlink">
<defs>
<symbol id="icon-social-linkedin" viewBox="0 0 24 24">
<path d="M8 19h-3v-10h3v10zM19 19h-3v-5.342c0-1.392-0.496-2.085-1.479-2.085-0.779 0-1.273 0.388-1.521 1.165 0 1.262 0 6.262 0 6.262h-3c0 0 0.040-9 0-10h2.368l0.183 2h0.062c0.615-1 1.598-1.678 2.946-1.678 1.025 0 1.854 0.285 2.487 1.001 0.637 0.717 0.954 1.679 0.954 3.030v5.647z"></path>
<path d="M8.050 6.5c0 0.828-0.694 1.5-1.55 1.5s-1.55-0.672-1.55-1.5c0-0.828 0.694-1.5 1.55-1.5s1.55 0.672 1.55 1.5z"></path>
</symbol>
<symbol id="icon-home-outline" viewBox="0 0 24 24">
<path d="M22.262 10.468c-3.39-2.854-9.546-8.171-9.607-8.225l-0.655-0.563-0.652 0.563c-0.062 0.053-6.221 5.368-9.66 8.248-0.438 0.394-0.688 0.945-0.688 1.509 0 1.104 0.896 2 2 2h1v6c0 1.104 0.896 2 2 2h12c1.104 0 2-0.896 2-2v-6h1c1.104 0 2-0.896 2-2 0-0.598-0.275-1.161-0.738-1.532zM14 20h-4v-5h4v5zM18 12l0.002 8c-0.002 0-3.002 0-3.002 0v-6h-6v6h-3v-8h-3.001c2.765-2.312 7.315-6.227 9.001-7.68 1.686 1.453 6.234 5.367 9 7.681 0 0-3 0-3-0.001z"></path>
</symbol>
<symbol id="icon-star-outline" viewBox="0 0 24 24">
<path d="M16.855 20.966c-0.224 0-0.443-0.050-0.646-0.146-0.035-0.014-0.069-0.031-0.104-0.051l-4.107-2.343-4.107 2.344c-0.035 0.020-0.070 0.037-0.106 0.053-0.488 0.228-1.085 0.174-1.521-0.143-0.469-0.34-0.701-0.933-0.586-1.509l0.957-4.642c-0.374-0.34-0.962-0.875-1.602-1.457l-1.895-1.725c-0.027-0.025-0.055-0.053-0.078-0.082-0.375-0.396-0.509-0.97-0.34-1.492 0.173-0.524 0.62-0.912 1.16-1.009 0.034-0.008 0.067-0.014 0.102-0.018l4.701-0.521 1.946-4.31c0.017-0.038 0.036-0.075 0.060-0.11 0.262-0.473 0.764-0.771 1.309-0.771 0.543 0 1.044 0.298 1.309 0.77 0.021 0.036 0.041 0.073 0.060 0.112l1.948 4.312 4.701 0.521c0.034 0.003 0.068 0.009 0.104 0.017 0.539 0.1 0.986 0.486 1.158 1.012 0.17 0.521 0.035 1.098-0.34 1.494-0.024 0.026-0.051 0.054-0.078 0.078l-3.498 3.184 0.957 4.632c0.113 0.587-0.118 1.178-0.59 1.519-0.252 0.182-0.556 0.281-0.874 0.281zM8.706 14.402c-0.039 0.182-0.466 2.246-0.845 4.082l3.643-2.077c0.307-0.175 0.684-0.175 0.99 0l3.643 2.075-0.849-4.104c-0.071-0.346 0.045-0.705 0.308-0.942l3.1-2.822-4.168-0.461c-0.351-0.039-0.654-0.26-0.801-0.584l-1.728-3.821-1.726 3.821c-0.146 0.322-0.45 0.543-0.801 0.584l-4.168 0.461 3.1 2.822c0.272 0.246 0.384 0.617 0.302 0.966z"></path>
</symbol>
<symbol id="icon-plane-outline" viewBox="0 0 24 24">
<path d="M20.988 12.396l-4.988-2.851v-4.795c0-1.93-1.57-3.5-3.5-3.5s-3.5 1.57-3.5 3.5v4.795l-4.988 2.851c-1.317 0.752-1.865 2.371-1.276 3.769 0.589 1.399 2.132 2.135 3.589 1.72l2.675-0.765v0.838l-0.874 0.699c-1.198 0.959-1.48 2.667-0.653 3.959 0.827 1.293 2.494 1.753 3.869 1.066 0.004-0.001 0.5-0.183 1.158-0.183s1.154 0.182 1.158 0.183c1.375 0.687 3.042 0.227 3.869-1.066 0.827-1.292 0.545-3-0.653-3.959l-0.874-0.699v-0.838l2.676 0.765c1.457 0.415 3-0.321 3.589-1.72s0.041-3.017-1.277-3.769zM20.422 15.388c-0.197 0.466-0.711 0.713-1.196 0.573l-5.226-1.492v4.451l1.625 1.3c0.399 0.319 0.493 0.889 0.218 1.32s-0.828 0.583-1.29 0.355c-0.008-0.004-0.824-0.395-2.053-0.395s-2.045 0.391-2.053 0.395c-0.462 0.227-1.015 0.074-1.29-0.355-0.275-0.431-0.182-1 0.218-1.32l1.625-1.3v-4.451l-5.226 1.493c-0.485 0.14-0.999-0.107-1.196-0.573s-0.014-1.005 0.426-1.256l5.996-3.427v-5.956c0-0.827 0.673-1.5 1.5-1.5s1.5 0.673 1.5 1.5v5.956l5.996 3.426c0.44 0.251 0.622 0.79 0.426 1.256z"></path>
<path d="M13 4.5c0 0.276-0.224 0.5-0.5 0.5s-0.5-0.224-0.5-0.5c0-0.276 0.224-0.5 0.5-0.5s0.5 0.224 0.5 0.5z"></path>
</symbol>
<symbol id="icon-bookmark" viewBox="0 0 24 24">
<path d="M18.419 21.814c0.161 0.116 0.363 0.186 0.581 0.186 0.552 0 1-0.448 1-1v-16c0-0.828-0.337-1.58-0.879-2.121s-1.293-0.879-2.121-0.879h-10c-0.828 0-1.58 0.337-2.121 0.879s-0.879 1.293-0.879 2.121v16c-0.001 0.199 0.060 0.404 0.186 0.581 0.321 0.449 0.946 0.554 1.395 0.232l6.419-4.584zM18 19.057l-5.419-3.871c-0.355-0.254-0.819-0.242-1.162 0l-5.419 3.871v-14.057c0-0.276 0.111-0.525 0.293-0.707s0.431-0.293 0.707-0.293h10c0.276 0 0.525 0.111 0.707 0.293s0.293 0.431 0.293 0.707z"></path>
</symbol>
<symbol id="icon-briefcase" viewBox="0 0 24 24">
<path d="M9 6v-1c0-0.276 0.111-0.525 0.293-0.707s0.431-0.293 0.707-0.293h4c0.276 0 0.525 0.111 0.707 0.293s0.293 0.431 0.293 0.707v1zM9 20v-12h6v12zM7 8v12h-3c-0.276 0-0.525-0.111-0.707-0.293s-0.293-0.431-0.293-0.707v-10c0-0.276 0.111-0.525 0.293-0.707s0.431-0.293 0.707-0.293zM17 6v-1c0-0.828-0.337-1.58-0.879-2.121s-1.293-0.879-2.121-0.879h-4c-0.828 0-1.58 0.337-2.121 0.879s-0.879 1.293-0.879 2.121v1h-3c-0.828 0-1.58 0.337-2.121 0.879s-0.879 1.293-0.879 2.121v10c0 0.828 0.337 1.58 0.879 2.121s1.293 0.879 2.121 0.879h16c0.828 0 1.58-0.337 2.121-0.879s0.879-1.293 0.879-2.121v-10c0-0.828-0.337-1.58-0.879-2.121s-1.293-0.879-2.121-0.879zM17 20v-12h3c0.276 0 0.525 0.111 0.707 0.293s0.293 0.431 0.293 0.707v10c0 0.276-0.111 0.525-0.293 0.707s-0.431 0.293-0.707 0.293z"></path>
</symbol>
<symbol id="icon-chevron-left" viewBox="0 0 24 24">
<path d="M15.707 17.293l-5.293-5.293 5.293-5.293c0.391-0.391 0.391-1.024 0-1.414s-1.024-0.391-1.414 0l-6 6c-0.391 0.391-0.391 1.024 0 1.414l6 6c0.391 0.391 1.024 0.391 1.414 0s0.391-1.024 0-1.414z"></path>
</symbol>
<symbol id="icon-chevron-right" viewBox="0 0 24 24">
<path d="M9.707 18.707l6-6c0.391-0.391 0.391-1.024 0-1.414l-6-6c-0.391-0.391-1.024-0.391-1.414 0s-0.391 1.024 0 1.414l5.293 5.293-5.293 5.293c-0.391 0.391-0.391 1.024 0 1.414s1.024 0.391 1.414 0z"></path>
</symbol>
<symbol id="icon-coffee" viewBox="0 0 24 24">
<path d="M19 15v-6c0.829 0 1.577 0.335 2.121 0.879s0.879 1.292 0.879 2.121-0.335 1.577-0.879 2.121-1.292 0.879-2.121 0.879zM2 7c-0.552 0-1 0.448-1 1v9c0 1.38 0.561 2.632 1.464 3.536s2.156 1.464 3.536 1.464h8c1.38 0 2.632-0.561 3.536-1.464s1.464-2.156 1.464-3.536c1.38 0 2.632-0.561 3.536-1.464s1.464-2.156 1.464-3.536-0.561-2.632-1.464-3.536-2.156-1.464-3.536-1.464h-1zM3 9h14v8c0 0.829-0.335 1.577-0.879 2.121s-1.292 0.879-2.121 0.879h-8c-0.829 0-1.577-0.335-2.121-0.879s-0.879-1.292-0.879-2.121zM5 1v3c0 0.552 0.448 1 1 1s1-0.448 1-1v-3c0-0.552-0.448-1-1-1s-1 0.448-1 1zM9 1v3c0 0.552 0.448 1 1 1s1-0.448 1-1v-3c0-0.552-0.448-1-1-1s-1 0.448-1 1zM13 1v3c0 0.552 0.448 1 1 1s1-0.448 1-1v-3c0-0.552-0.448-1-1-1s-1 0.448-1 1z"></path>
</symbol>
<symbol id="icon-facebook" viewBox="0 0 24 24">
<path d="M17 3v2h-2c-0.552 0-1.053 0.225-1.414 0.586s-0.586 0.862-0.586 1.414v3c0 0.552 0.448 1 1 1h2.719l-0.5 2h-2.219c-0.552 0-1 0.448-1 1v7h-2v-7c0-0.552-0.448-1-1-1h-2v-2h2c0.552 0 1-0.448 1-1v-3c0-1.105 0.447-2.103 1.172-2.828s1.723-1.172 2.828-1.172zM18 1h-3c-1.657 0-3.158 0.673-4.243 1.757s-1.757 2.586-1.757 4.243v2h-2c-0.552 0-1 0.448-1 1v4c0 0.552 0.448 1 1 1h2v7c0 0.552 0.448 1 1 1h4c0.552 0 1-0.448 1-1v-7h2c0.466 0 0.858-0.319 0.97-0.757l1-4c0.134-0.536-0.192-1.079-0.728-1.213-0.083-0.021-0.167-0.031-0.242-0.030h-3v-2h3c0.552 0 1-0.448 1-1v-4c0-0.552-0.448-1-1-1z"></path>
</symbol>
<symbol id="icon-github" viewBox="0 0 24 24">
<path d="M8.713 18.042c-1.268 0.38-2.060 0.335-2.583 0.17-0.231-0.073-0.431-0.176-0.614-0.302-0.411-0.284-0.727-0.675-1.119-1.172-0.356-0.451-0.85-1.107-1.551-1.476-0.185-0.098-0.386-0.177-0.604-0.232-0.536-0.134-1.079 0.192-1.213 0.728s0.192 1.079 0.728 1.213c0.074 0.023 0.155 0.060 0.155 0.060 0.252 0.133 0.487 0.404 0.914 0.946 0.366 0.464 0.856 1.098 1.553 1.579 0.332 0.229 0.711 0.426 1.149 0.564 1.015 0.321 2.236 0.296 3.76-0.162 0.529-0.159 0.829-0.716 0.67-1.245s-0.716-0.829-1.245-0.67zM17 22v-3.792c0.052-0.684-0.056-1.343-0.292-1.942 0.777-0.171 1.563-0.427 2.297-0.823 2.083-1.124 3.496-3.242 3.496-6.923 0-1.503-0.516-2.887-1.379-3.981 0.355-1.345 0.226-2.726-0.293-3.933-0.122-0.283-0.359-0.482-0.634-0.564-0.357-0.106-1.732-0.309-4.373 1.362-2.273-0.541-4.557-0.509-6.646-0.002-2.639-1.669-4.013-1.466-4.37-1.36-0.296 0.088-0.521 0.3-0.635 0.565-0.554 1.292-0.624 2.672-0.292 3.932-0.93 1.178-1.387 2.601-1.379 4.017 0 3.622 1.389 5.723 3.441 6.859 0.752 0.416 1.56 0.685 2.357 0.867-0.185 0.468-0.286 0.961-0.304 1.456-0.005 0.141-0.003 0.283 0.005 0.424l0.001 3.838c0 0.552 0.448 1 1 1s1-0.448 1-1v-3.87c0-0.021-0.001-0.045-0.002-0.069-0.006-0.084-0.007-0.168-0.004-0.252 0.020-0.568 0.241-1.126 0.665-1.564 0.145-0.149 0.246-0.347 0.274-0.572 0.068-0.548-0.321-1.048-0.869-1.116-0.34-0.042-0.677-0.094-1.006-0.159-0.79-0.156-1.518-0.385-2.147-0.733-1.305-0.723-2.391-2.071-2.41-5.042 0.013-1.241 0.419-2.319 1.224-3.165 0.257-0.273 0.35-0.671 0.212-1.040-0.28-0.748-0.341-1.58-0.14-2.392 0.491 0.107 1.354 0.416 2.647 1.282 0.235 0.157 0.533 0.214 0.825 0.133 1.997-0.557 4.242-0.602 6.47 0.002 0.271 0.073 0.569 0.033 0.818-0.135 1.293-0.866 2.156-1.175 2.647-1.282 0.189 0.766 0.157 1.595-0.141 2.392-0.129 0.352-0.058 0.755 0.213 1.040 0.758 0.795 1.224 1.872 1.224 3.060 0 3.075-1.114 4.445-2.445 5.163-0.623 0.336-1.343 0.555-2.123 0.7-0.322 0.060-0.651 0.106-0.983 0.143-0.21 0.023-0.418 0.114-0.584 0.275-0.397 0.384-0.408 1.017-0.024 1.414 0.067 0.070 0.13 0.143 0.188 0.22 0.34 0.449 0.521 1.015 0.474 1.617 0 0.024-0.001 0.051-0.003 0.078v3.872c0 0.552 0.448 1 1 1s1-0.448 1-1z"></path>
</symbol>
<symbol id="icon-heart" viewBox="0 0 24 24">
<path d="M20.133 5.317c0.88 0.881 1.319 2.031 1.319 3.184s-0.44 2.303-1.319 3.182l-8.133 8.133-8.133-8.133c-0.879-0.879-1.318-2.029-1.318-3.183s0.439-2.304 1.318-3.183 2.029-1.318 3.183-1.318 2.304 0.439 3.183 1.318l1.060 1.060c0.391 0.391 1.024 0.391 1.414 0l1.062-1.062c0.879-0.879 2.029-1.318 3.182-1.317s2.303 0.44 3.182 1.319zM21.547 3.903c-1.269-1.269-2.934-1.904-4.596-1.905s-3.327 0.634-4.597 1.903l-0.354 0.355-0.353-0.353c-1.269-1.269-2.935-1.904-4.597-1.904s-3.328 0.635-4.597 1.904-1.904 2.935-1.904 4.597 0.635 3.328 1.904 4.597l8.84 8.84c0.391 0.391 1.024 0.391 1.414 0l8.84-8.84c1.269-1.269 1.904-2.934 1.905-4.596s-0.634-3.327-1.905-4.598z"></path>
</symbol>
<symbol id="icon-home" viewBox="0 0 24 24">
<path d="M2.386 8.211c-0.236 0.184-0.386 0.469-0.386 0.789v11c0 0.828 0.337 1.58 0.879 2.121s1.293 0.879 2.121 0.879h14c0.828 0 1.58-0.337 2.121-0.879s0.879-1.293 0.879-2.121v-11c-0.001-0.3-0.134-0.593-0.386-0.789l-9-7c-0.358-0.275-0.861-0.285-1.228 0zM16 21v-9c0-0.552-0.448-1-1-1h-6c-0.552 0-1 0.448-1 1v9h-3c-0.276 0-0.525-0.111-0.707-0.293s-0.293-0.431-0.293-0.707v-10.511l8-6.222 8 6.222v10.511c0 0.276-0.111 0.525-0.293 0.707s-0.431 0.293-0.707 0.293zM10 21v-8h4v8z"></path>
</symbol>
<symbol id="icon-instagram" viewBox="0 0 24 24">
<path d="M7 1c-1.657 0-3.158 0.673-4.243 1.757s-1.757 2.586-1.757 4.243v10c0 1.657 0.673 3.158 1.757 4.243s2.586 1.757 4.243 1.757h10c1.657 0 3.158-0.673 4.243-1.757s1.757-2.586 1.757-4.243v-10c0-1.657-0.673-3.158-1.757-4.243s-2.586-1.757-4.243-1.757zM7 3h10c1.105 0 2.103 0.447 2.828 1.172s1.172 1.723 1.172 2.828v10c0 1.105-0.447 2.103-1.172 2.828s-1.723 1.172-2.828 1.172h-10c-1.105 0-2.103-0.447-2.828-1.172s-1.172-1.723-1.172-2.828v-10c0-1.105 0.447-2.103 1.172-2.828s1.723-1.172 2.828-1.172zM16.989 11.223c-0.15-0.972-0.571-1.857-1.194-2.567-0.754-0.861-1.804-1.465-3.009-1.644-0.464-0.074-0.97-0.077-1.477-0.002-1.366 0.202-2.521 0.941-3.282 1.967s-1.133 2.347-0.93 3.712 0.941 2.521 1.967 3.282 2.347 1.133 3.712 0.93 2.521-0.941 3.282-1.967 1.133-2.347 0.93-3.712zM15.011 11.517c0.122 0.82-0.1 1.609-0.558 2.227s-1.15 1.059-1.969 1.18-1.609-0.1-2.227-0.558-1.059-1.15-1.18-1.969 0.1-1.609 0.558-2.227 1.15-1.059 1.969-1.18c0.313-0.046 0.615-0.042 0.87-0.002 0.74 0.11 1.366 0.47 1.818 0.986 0.375 0.428 0.63 0.963 0.72 1.543zM17.5 7.5c0.552 0 1-0.448 1-1s-0.448-1-1-1-1 0.448-1 1 0.448 1 1 1z"></path>
</symbol>
<symbol id="icon-key" viewBox="0 0 24 24">
<path d="M20.293 1.293l-2 2c-0.391 0.391-0.391 1.024 0 1.414s1.024 0.391 1.414 0l2-2c0.391-0.391 0.391-1.024 0-1.414s-1.024-0.391-1.414 0zM12.092 10.898c-1.262-1.244-2.908-1.869-4.553-1.873-1.652-0.003-3.308 0.62-4.578 1.873-1.277 1.26-1.923 2.921-1.935 4.583s0.614 3.332 1.874 4.609c1.34 1.323 3.009 1.946 4.671 1.935s3.323-0.657 4.583-1.935 1.884-2.947 1.873-4.609-0.657-3.323-1.935-4.583zM10.688 12.322c0.885 0.873 1.332 2.020 1.339 3.173s-0.424 2.306-1.297 3.191-2.020 1.332-3.173 1.339-2.306-0.424-3.191-1.297c-0.916-0.927-1.347-2.080-1.339-3.233s0.455-2.3 1.339-3.173c0.879-0.867 2.023-1.299 3.169-1.296 1.141 0.002 2.279 0.435 3.152 1.296zM12.097 12.317l4.11-4.11c0.391-0.391 0.391-1.024 0-1.414s-1.024-0.391-1.414 0l-4.11 4.11c-0.391 0.391-0.391 1.024 0 1.414s1.024 0.391 1.414 0zM14.793 8.207l3 3c0.391 0.391 1.024 0.391 1.414 0l3.5-3.5c0.391-0.391 0.391-1.024 0-1.414l-3-3c-0.391-0.391-1.024-0.391-1.414 0s-0.391 1.024 0 1.414l2.293 2.293-2.086 2.086-2.293-2.293c-0.391-0.391-1.024-0.391-1.414 0s-0.391 1.024 0 1.414zM16.207 8.207l3.5-3.5c0.391-0.391 0.391-1.024 0-1.414s-1.024-0.391-1.414 0l-3.5 3.5c-0.391 0.391-0.391 1.024 0 1.414s1.024 0.391 1.414 0z"></path>
</symbol>
<symbol id="icon-linkedin" viewBox="0 0 24 24">
<path d="M16 7c-1.933 0-3.684 0.785-4.95 2.050s-2.050 3.017-2.050 4.95v7c0 0.552 0.448 1 1 1h4c0.552 0 1-0.448 1-1v-7c0-0.276 0.111-0.525 0.293-0.707s0.431-0.293 0.707-0.293 0.525 0.111 0.707 0.293 0.293 0.431 0.293 0.707v7c0 0.552 0.448 1 1 1h4c0.552 0 1-0.448 1-1v-7c0-1.933-0.785-3.684-2.050-4.95s-3.017-2.050-4.95-2.050zM16 9c1.381 0 2.63 0.559 3.536 1.464s1.464 2.155 1.464 3.536v6h-2v-6c0-0.828-0.337-1.58-0.879-2.121s-1.293-0.879-2.121-0.879-1.58 0.337-2.121 0.879-0.879 1.293-0.879 2.121v6h-2v-6c0-1.381 0.559-2.63 1.464-3.536s2.155-1.464 3.536-1.464zM2 8c-0.552 0-1 0.448-1 1v12c0 0.552 0.448 1 1 1h4c0.552 0 1-0.448 1-1v-12c0-0.552-0.448-1-1-1zM3 10h2v10h-2zM7 4c0-0.828-0.337-1.58-0.879-2.121s-1.293-0.879-2.121-0.879-1.58 0.337-2.121 0.879-0.879 1.293-0.879 2.121 0.337 1.58 0.879 2.121 1.293 0.879 2.121 0.879 1.58-0.337 2.121-0.879 0.879-1.293 0.879-2.121zM5 4c0 0.276-0.111 0.525-0.293 0.707s-0.431 0.293-0.707 0.293-0.525-0.111-0.707-0.293-0.293-0.431-0.293-0.707 0.111-0.525 0.293-0.707 0.431-0.293 0.707-0.293 0.525 0.111 0.707 0.293 0.293 0.431 0.293 0.707z"></path>
</symbol>
<symbol id="icon-map" viewBox="0 0 24 24">
<path d="M7 3.723v13.697l-5 2.857v-13.697zM17 20.277v-13.697l5-2.857v13.696zM15.535 22.885c0.082 0.043 0.17 0.075 0.263 0.094 0.033 0.007 0.067 0.012 0.101 0.015s0.068 0.005 0.102 0.005c-0.001 0.001-0.001 0.001-0.001 0.001s0 0 0.001 0c0.173 0 0.344-0.046 0.496-0.132l0.015-0.009 6.985-3.991c0.32-0.183 0.501-0.518 0.503-0.868v-16c0-0.552-0.448-1-1-1-0.183 0-0.354 0.049-0.496 0.132l-6.535 3.734-7.503-3.752c-0.083-0.042-0.171-0.075-0.264-0.094-0.034-0.007-0.067-0.012-0.101-0.015s-0.068-0.005-0.102-0.005c0.001 0 0.001 0 0.001 0s0 0-0.001 0c-0.173 0-0.344 0.046-0.495 0.132l-0.015 0.008-6.985 3.992c-0.321 0.183-0.502 0.518-0.504 0.868v16c0 0.552 0.448 1 1 1 0.183 0 0.354-0.049 0.496-0.132l6.535-3.734zM15 6.618v13.764l-6-3v-13.764z"></path>
</symbol>
<symbol id="icon-map-pin" viewBox="0 0 24 24">
<path d="M22 10c0-2.761-1.12-5.263-2.929-7.071s-4.31-2.929-7.071-2.929-5.263 1.12-7.071 2.929-2.929 4.31-2.929 7.071c0 0.569 0.053 1.128 0.15 1.676 0.274 1.548 0.899 3.004 1.682 4.32 2.732 4.591 7.613 7.836 7.613 7.836 0.331 0.217 0.765 0.229 1.109 0 0 0 4.882-3.245 7.613-7.836 0.783-1.316 1.408-2.772 1.682-4.32 0.098-0.548 0.151-1.107 0.151-1.676zM20 10c0 0.444-0.041 0.887-0.119 1.328-0.221 1.25-0.737 2.478-1.432 3.646-1.912 3.214-5.036 5.747-6.369 6.74-1.398-0.916-4.588-3.477-6.53-6.74-0.695-1.168-1.211-2.396-1.432-3.646-0.077-0.441-0.118-0.884-0.118-1.328 0-2.209 0.894-4.208 2.343-5.657s3.448-2.343 5.657-2.343 4.208 0.894 5.657 2.343 2.343 3.448 2.343 5.657zM16 10c0-1.104-0.449-2.106-1.172-2.828s-1.724-1.172-2.828-1.172-2.106 0.449-2.828 1.172-1.172 1.724-1.172 2.828 0.449 2.106 1.172 2.828 1.724 1.172 2.828 1.172 2.106-0.449 2.828-1.172 1.172-1.724 1.172-2.828zM14 10c0 0.553-0.223 1.051-0.586 1.414s-0.861 0.586-1.414 0.586-1.051-0.223-1.414-0.586-0.586-0.861-0.586-1.414 0.223-1.051 0.586-1.414 0.861-0.586 1.414-0.586 1.051 0.223 1.414 0.586 0.586 0.861 0.586 1.414z"></path>
</symbol>
<symbol id="icon-search" viewBox="0 0 24 24">
<path d="M16.041 15.856c-0.034 0.026-0.067 0.055-0.099 0.087s-0.060 0.064-0.087 0.099c-1.258 1.213-2.969 1.958-4.855 1.958-1.933 0-3.682-0.782-4.95-2.050s-2.050-3.017-2.050-4.95 0.782-3.682 2.050-4.95 3.017-2.050 4.95-2.050 3.682 0.782 4.95 2.050 2.050 3.017 2.050 4.95c0 1.886-0.745 3.597-1.959 4.856zM21.707 20.293l-3.675-3.675c1.231-1.54 1.968-3.493 1.968-5.618 0-2.485-1.008-4.736-2.636-6.364s-3.879-2.636-6.364-2.636-4.736 1.008-6.364 2.636-2.636 3.879-2.636 6.364 1.008 4.736 2.636 6.364 3.879 2.636 6.364 2.636c2.125 0 4.078-0.737 5.618-1.968l3.675 3.675c0.391 0.391 1.024 0.391 1.414 0s0.391-1.024 0-1.414z"></path>
</symbol>
<symbol id="icon-shopping-cart" viewBox="0 0 24 24">
<path d="M11 21c0-0.552-0.225-1.053-0.586-1.414s-0.862-0.586-1.414-0.586-1.053 0.225-1.414 0.586-0.586 0.862-0.586 1.414 0.225 1.053 0.586 1.414 0.862 0.586 1.414 0.586 1.053-0.225 1.414-0.586 0.586-0.862 0.586-1.414zM22 21c0-0.552-0.225-1.053-0.586-1.414s-0.862-0.586-1.414-0.586-1.053 0.225-1.414 0.586-0.586 0.862-0.586 1.414 0.225 1.053 0.586 1.414 0.862 0.586 1.414 0.586 1.053-0.225 1.414-0.586 0.586-0.862 0.586-1.414zM7.221 7h14.57l-1.371 7.191c-0.046 0.228-0.166 0.425-0.332 0.568-0.18 0.156-0.413 0.246-0.688 0.241h-9.734c-0.232 0.003-0.451-0.071-0.626-0.203-0.19-0.143-0.329-0.351-0.379-0.603zM1 2h3.18l0.848 4.239c0.108 0.437 0.502 0.761 0.972 0.761h1.221l-0.4-2h-0.821c-0.552 0-1 0.448-1 1 0 0.053 0.004 0.105 0.012 0.155 0.004 0.028 0.010 0.057 0.017 0.084l1.671 8.347c0.149 0.751 0.57 1.383 1.14 1.811 0.521 0.392 1.17 0.613 1.854 0.603h9.706c0.748 0.015 1.455-0.261 1.995-0.727 0.494-0.426 0.848-1.013 0.985-1.683l1.602-8.402c0.103-0.543-0.252-1.066-0.795-1.17-0.065-0.013-0.13-0.019-0.187-0.018h-16.18l-0.84-4.196c-0.094-0.462-0.497-0.804-0.98-0.804h-4c-0.552 0-1 0.448-1 1s0.448 1 1 1z"></path>
</symbol>
<symbol id="icon-user" viewBox="0 0 24 24">
<path d="M21 21v-2c0-1.38-0.561-2.632-1.464-3.536s-2.156-1.464-3.536-1.464h-8c-1.38 0-2.632 0.561-3.536 1.464s-1.464 2.156-1.464 3.536v2c0 0.552 0.448 1 1 1s1-0.448 1-1v-2c0-0.829 0.335-1.577 0.879-2.121s1.292-0.879 2.121-0.879h8c0.829 0 1.577 0.335 2.121 0.879s0.879 1.292 0.879 2.121v2c0 0.552 0.448 1 1 1s1-0.448 1-1zM17 7c0-1.38-0.561-2.632-1.464-3.536s-2.156-1.464-3.536-1.464-2.632 0.561-3.536 1.464-1.464 2.156-1.464 3.536 0.561 2.632 1.464 3.536 2.156 1.464 3.536 1.464 2.632-0.561 3.536-1.464 1.464-2.156 1.464-3.536zM15 7c0 0.829-0.335 1.577-0.879 2.121s-1.292 0.879-2.121 0.879-1.577-0.335-2.121-0.879-0.879-1.292-0.879-2.121 0.335-1.577 0.879-2.121 1.292-0.879 2.121-0.879 1.577 0.335 2.121 0.879 0.879 1.292 0.879 2.121z"></path>
</symbol>
<symbol id="icon-calendar" viewBox="0 0 18 18">
<path d="M11.5 11h-1.5v-3.5c0-0.276-0.224-0.5-0.5-0.5h-3c-0.276 0-0.5 0.224-0.5 0.5v1c0 0.276 0.224 0.5 0.5 0.5h1.5v2h-1.5c-0.276 0-0.5 0.224-0.5 0.5v1c0 0.276 0.224 0.5 0.5 0.5h5c0.276 0 0.5-0.224 0.5-0.5v-1c0-0.276-0.224-0.5-0.5-0.5zM16 1h-14c-0.552 0-1 0.448-1 1v14c0 0.552 0.448 1 1 1h14c0.552 0 1-0.448 1-1v-14c0-0.552-0.448-1-1-1zM15 14.5c0 0.276-0.224 0.5-0.5 0.5h-11c-0.276 0-0.5-0.224-0.5-0.5v-9c0-0.276 0.224-0.5 0.5-0.5h11c0.276 0 0.5 0.224 0.5 0.5v9z"></path>
</symbol>
<symbol id="icon-quotes-right" viewBox="0 0 32 32">
<path d="M25 20c-3.866 0-7-3.134-7-7s3.134-7 7-7 7 3.134 7 7l0.031 1c0 7.732-6.268 14-14 14v-4c2.671 0 5.182-1.040 7.071-2.929 0.364-0.364 0.695-0.75 0.995-1.157-0.357 0.056-0.724 0.086-1.097 0.086zM7 20c-3.866 0-7-3.134-7-7s3.134-7 7-7 7 3.134 7 7l0.031 1c0 7.732-6.268 14-14 14v-4c2.671 0 5.182-1.040 7.071-2.929 0.364-0.364 0.695-0.75 0.995-1.157-0.357 0.056-0.724 0.086-1.097 0.086z"></path>
</symbol>
</defs>
</svg>
